<svg xmlns="http://www.w3.org/2000/svg" width="758" height="718" overflow="hidden"><defs><clipPath id="a"><path d="M-1 19h758v718H-1z"/></clipPath></defs><g clip-path="url(#a)" transform="translate(1 -19)"><path fill="#0068B7" fill-rule="evenodd" d="m249.557 378.379 18.929-16.85h19.058v-5.445c-31.617-4.8-58.05-20.231-71.796-41.106l-.515-.904c-.129-.128-.258-.386-.258-.516 0-.645.644-1.161 1.418-1.161h.387l.129.129c9.722 1.807 21.379 2.994 33.809 2.994h5.57c16.453-.387 29.811-5.832 32.39-12.98l-.387-.129c-20.089-2.864-37.187-8.825-49.23-16.592l-.387-.129c-.515-.387-1.031-1.032-1.031-1.807 0-1.161.902-1.935 2.063-1.935h.387c36.026-.258 67.256-15.818 83.58-38.758l.387-.258c16.84 3.38 35.64 5.187 55.471 5.187 21.508 0 41.855-2.194 59.726-6.09l.645 1.161c16.324 22.94 47.554 38.5 83.58 38.758h.387c1.161 0 2.063.774 2.063 1.935 0 .775-.515 1.42-1.031 1.807l-.387.129c-12.043 7.793-29.167 13.753-49.23 16.592l-.387.129c2.579 7.122 15.937 12.567 32.39 12.98h5.571c12.43 0 24.112-1.162 33.834-2.994l.129-.129h.387c.774 0 1.418.516 1.418 1.161 0 .13-.129.388-.258.516l-.515.904c-13.746 20.875-40.179 36.306-71.796 41.106v5.445h19.058l18.929 16.85 135.931.258 65.168 56.538c-30.715 63.401-78.011 124.996-140.083 177.121C396.887 761.91 164.275 778.115 55.447 648.319 3.225 585.95-11.036 501.156 8.151 413.499l87.733 74.807c5.054 34.242 18.284 65.724 40.436 92.199 82.936 98.676 258.117 87.915 391.701-24.256 32.777-27.482 59.984-58.602 81.105-91.141l-202.388-.258v-27.353c0-13.367-10.883-24.256-24.37-24.256-13.23 0-24.112 10.889-24.112 24.256v27.353l-264.848.258-80.847-69.492c23.983-89.205 81.775-180.217 168.45-252.96 178.173-149.614 410.63-165.69 519.484-36.049 67.772 80.768 71.537 198.901 21.894 312.724l-67.643-57.957c16.969-69.491 6.602-137.305-34.995-186.824-82.936-98.78-258.246-88.019-391.701 24.127-61.558 51.738-103.541 116.043-122.702 179.96l144.209-.258Z"/></g></svg>